<mxfile host="app.diagrams.net" modified="2023-05-03T07:21:01.478Z" agent="Mozilla/5.0 (Macintosh; Intel Mac OS X 10_15_7) AppleWebKit/537.36 (KHTML, like Gecko) Chrome/112.0.0.0 Safari/537.36" etag="YqrRF-ylxZsjy4ZM6vK6" version="21.2.2" type="device">
  <diagram id="E4VXi0l4gOPJAWyX6kmC" name="Seite-1">
    <mxGraphModel dx="694" dy="421" grid="1" gridSize="10" guides="1" tooltips="1" connect="1" arrows="1" fold="1" page="1" pageScale="1" pageWidth="827" pageHeight="1169" math="0" shadow="0">
      <root>
        <mxCell id="0" />
        <mxCell id="1" parent="0" />
        <mxCell id="HGYrWsKxrRDoUo5O1yQK-13" value="" style="rounded=1;whiteSpace=wrap;html=1;fontSize=22;strokeColor=#003366;fillColor=#99CCFF;fillStyle=auto;opacity=30;" parent="1" vertex="1">
          <mxGeometry x="110" y="350" width="340" height="195" as="geometry" />
        </mxCell>
        <mxCell id="HGYrWsKxrRDoUo5O1yQK-12" value="" style="rounded=1;whiteSpace=wrap;html=1;fontSize=22;strokeColor=#F00505;fillColor=#F04848;fillStyle=auto;opacity=30;" parent="1" vertex="1">
          <mxGeometry x="320" y="350" width="320" height="195" as="geometry" />
        </mxCell>
        <mxCell id="HGYrWsKxrRDoUo5O1yQK-1" value="&lt;div&gt;Home Appliance&lt;/div&gt;" style="text;html=1;strokeColor=none;fillColor=none;align=center;verticalAlign=middle;whiteSpace=wrap;rounded=0;" parent="1" vertex="1">
          <mxGeometry x="150" y="360" width="60" height="30" as="geometry" />
        </mxCell>
        <mxCell id="HGYrWsKxrRDoUo5O1yQK-2" value="Energieerzeuger" style="text;html=1;strokeColor=none;fillColor=none;align=center;verticalAlign=middle;whiteSpace=wrap;rounded=0;" parent="1" vertex="1">
          <mxGeometry x="480" y="400" width="150" height="30" as="geometry" />
        </mxCell>
        <mxCell id="HGYrWsKxrRDoUo5O1yQK-3" value="Solaranlage" style="text;html=1;strokeColor=none;fillColor=none;align=center;verticalAlign=middle;whiteSpace=wrap;rounded=0;fontStyle=0" parent="1" vertex="1">
          <mxGeometry x="110" y="432.5" width="140" height="30" as="geometry" />
        </mxCell>
        <mxCell id="HGYrWsKxrRDoUo5O1yQK-4" value="Wetterinformationen" style="text;html=1;strokeColor=none;fillColor=none;align=center;verticalAlign=middle;whiteSpace=wrap;rounded=0;" parent="1" vertex="1">
          <mxGeometry x="320" y="437" width="140" height="30" as="geometry" />
        </mxCell>
        <mxCell id="HGYrWsKxrRDoUo5O1yQK-5" value="Energiespeicher" style="text;html=1;strokeColor=none;fillColor=none;align=center;verticalAlign=middle;whiteSpace=wrap;rounded=0;" parent="1" vertex="1">
          <mxGeometry x="320" y="500" width="140" height="30" as="geometry" />
        </mxCell>
        <mxCell id="HGYrWsKxrRDoUo5O1yQK-6" value="Zeitinformationen" style="text;html=1;strokeColor=none;fillColor=none;align=center;verticalAlign=middle;whiteSpace=wrap;rounded=0;" parent="1" vertex="1">
          <mxGeometry x="320" y="360" width="140" height="30" as="geometry" />
        </mxCell>
        <mxCell id="HGYrWsKxrRDoUo5O1yQK-7" value="Stromnachfragefenster" style="text;html=1;strokeColor=none;fillColor=none;align=center;verticalAlign=middle;whiteSpace=wrap;rounded=0;" parent="1" vertex="1">
          <mxGeometry x="120" y="462.5" width="140" height="30" as="geometry" />
        </mxCell>
        <mxCell id="HGYrWsKxrRDoUo5O1yQK-8" value="Grundlast" style="text;html=1;strokeColor=none;fillColor=none;align=center;verticalAlign=middle;whiteSpace=wrap;rounded=0;" parent="1" vertex="1">
          <mxGeometry x="110" y="400" width="140" height="30" as="geometry" />
        </mxCell>
        <mxCell id="HGYrWsKxrRDoUo5O1yQK-10" value="&lt;div style=&quot;font-size: 22px;&quot;&gt;Smart Grid&lt;/div&gt;" style="text;html=1;strokeColor=none;fillColor=none;align=center;verticalAlign=middle;whiteSpace=wrap;rounded=0;fontStyle=1;fontSize=22;" parent="1" vertex="1">
          <mxGeometry x="280" y="300" width="220" height="30" as="geometry" />
        </mxCell>
        <mxCell id="HGYrWsKxrRDoUo5O1yQK-11" value="Energieverbraucher" style="text;html=1;strokeColor=none;fillColor=none;align=center;verticalAlign=middle;whiteSpace=wrap;rounded=0;" parent="1" vertex="1">
          <mxGeometry x="520" y="370" width="80" height="30" as="geometry" />
        </mxCell>
        <mxCell id="HGYrWsKxrRDoUo5O1yQK-14" value="SGS" style="text;html=1;strokeColor=none;fillColor=none;align=center;verticalAlign=middle;whiteSpace=wrap;rounded=0;fillStyle=auto;fontSize=22;" parent="1" vertex="1">
          <mxGeometry x="570" y="510" width="60" height="30" as="geometry" />
        </mxCell>
        <mxCell id="HGYrWsKxrRDoUo5O1yQK-15" value="SHS" style="text;html=1;strokeColor=none;fillColor=none;align=center;verticalAlign=middle;whiteSpace=wrap;rounded=0;fillStyle=auto;fontSize=22;" parent="1" vertex="1">
          <mxGeometry x="120" y="510" width="60" height="30" as="geometry" />
        </mxCell>
        <mxCell id="HGYrWsKxrRDoUo5O1yQK-16" value="Prognose" style="text;html=1;strokeColor=none;fillColor=none;align=center;verticalAlign=middle;whiteSpace=wrap;rounded=0;fontStyle=0" parent="1" vertex="1">
          <mxGeometry x="490" y="462.5" width="140" height="30" as="geometry" />
        </mxCell>
        <mxCell id="HGYrWsKxrRDoUo5O1yQK-17" value="Lastmanagment" style="text;html=1;strokeColor=none;fillColor=none;align=center;verticalAlign=middle;whiteSpace=wrap;rounded=0;" parent="1" vertex="1">
          <mxGeometry x="490" y="432.5" width="140" height="30" as="geometry" />
        </mxCell>
        <mxCell id="HGYrWsKxrRDoUo5O1yQK-19" value="User" style="text;html=1;strokeColor=none;fillColor=none;align=center;verticalAlign=middle;whiteSpace=wrap;rounded=0;" parent="1" vertex="1">
          <mxGeometry x="310" y="400" width="140" height="30" as="geometry" />
        </mxCell>
        <mxCell id="HGYrWsKxrRDoUo5O1yQK-20" value="Tarife" style="text;html=1;strokeColor=none;fillColor=none;align=center;verticalAlign=middle;whiteSpace=wrap;rounded=0;fontStyle=0" parent="1" vertex="1">
          <mxGeometry x="310" y="470" width="140" height="30" as="geometry" />
        </mxCell>
        <mxCell id="G_giYsL83viZyYNvSKfM-1" value="" style="rounded=1;whiteSpace=wrap;html=1;fontSize=22;strokeColor=#003366;fillColor=#66FF66;fillStyle=auto;opacity=30;" vertex="1" parent="1">
          <mxGeometry x="210" y="570" width="340" height="195" as="geometry" />
        </mxCell>
        <mxCell id="G_giYsL83viZyYNvSKfM-2" value="Mobilit채t" style="text;html=1;strokeColor=none;fillColor=none;align=center;verticalAlign=middle;whiteSpace=wrap;rounded=0;fillStyle=auto;fontSize=22;" vertex="1" parent="1">
          <mxGeometry x="237" y="726" width="60" height="30" as="geometry" />
        </mxCell>
        <mxCell id="G_giYsL83viZyYNvSKfM-3" value="Elektrofahrzeuge" style="text;html=1;strokeColor=none;fillColor=none;align=center;verticalAlign=middle;whiteSpace=wrap;rounded=0;" vertex="1" parent="1">
          <mxGeometry x="320" y="596.5" width="140" height="30" as="geometry" />
        </mxCell>
        <mxCell id="G_giYsL83viZyYNvSKfM-4" value="Ladestation" style="text;html=1;strokeColor=none;fillColor=none;align=center;verticalAlign=middle;whiteSpace=wrap;rounded=0;" vertex="1" parent="1">
          <mxGeometry x="320" y="626.5" width="140" height="30" as="geometry" />
        </mxCell>
        <mxCell id="G_giYsL83viZyYNvSKfM-5" value="Lademanagement" style="text;html=1;strokeColor=none;fillColor=none;align=center;verticalAlign=middle;whiteSpace=wrap;rounded=0;" vertex="1" parent="1">
          <mxGeometry x="320" y="656.5" width="140" height="30" as="geometry" />
        </mxCell>
        <mxCell id="G_giYsL83viZyYNvSKfM-6" value="DTO&#39;s: Energiepreise, Ger채teverbrauch / Ger채teinformation, Energieart (Gr체n / nicht erneuerbar)&lt;br&gt;&lt;br&gt;Vielleicht: Lastmanagement, Sensoren" style="text;html=1;align=center;verticalAlign=middle;resizable=0;points=[];autosize=1;strokeColor=none;fillColor=none;" vertex="1" parent="1">
          <mxGeometry x="25" y="835" width="540" height="60" as="geometry" />
        </mxCell>
      </root>
    </mxGraphModel>
  </diagram>
</mxfile>
